<mxfile host="app.diagrams.net" modified="2022-03-04T07:56:04.604Z" agent="5.0 (Windows)" etag="YreJtujDUohKDWSKz7-F" version="16.6.5" type="github">
  <diagram id="eDHxqj6L2KVflL8UDVeR" name="Page-1">
    <mxGraphModel dx="726" dy="572" grid="1" gridSize="10" guides="1" tooltips="1" connect="1" arrows="1" fold="1" page="1" pageScale="1" pageWidth="827" pageHeight="1169" math="0" shadow="0">
      <root>
        <mxCell id="0" />
        <mxCell id="1" parent="0" />
        <mxCell id="VF5sbW5bGw1HgcJpIHXw-19" value="Business system" style="rounded=1;whiteSpace=wrap;html=1;labelPosition=center;verticalLabelPosition=top;align=center;verticalAlign=bottom;" vertex="1" parent="1">
          <mxGeometry x="20" y="80" width="690" height="590" as="geometry" />
        </mxCell>
        <mxCell id="VF5sbW5bGw1HgcJpIHXw-3" style="edgeStyle=orthogonalEdgeStyle;rounded=0;orthogonalLoop=1;jettySize=auto;html=1;exitX=0.5;exitY=1;exitDx=0;exitDy=0;entryX=0.5;entryY=0;entryDx=0;entryDy=0;" edge="1" parent="1" source="VF5sbW5bGw1HgcJpIHXw-1" target="VF5sbW5bGw1HgcJpIHXw-2">
          <mxGeometry relative="1" as="geometry" />
        </mxCell>
        <mxCell id="VF5sbW5bGw1HgcJpIHXw-1" value="" style="rounded=1;whiteSpace=wrap;html=1;" vertex="1" parent="1">
          <mxGeometry x="140" y="120" width="120" height="60" as="geometry" />
        </mxCell>
        <mxCell id="VF5sbW5bGw1HgcJpIHXw-5" value="Y" style="edgeStyle=orthogonalEdgeStyle;rounded=0;orthogonalLoop=1;jettySize=auto;html=1;exitX=1;exitY=0.5;exitDx=0;exitDy=0;entryX=0;entryY=0.5;entryDx=0;entryDy=0;" edge="1" parent="1" source="VF5sbW5bGw1HgcJpIHXw-2" target="VF5sbW5bGw1HgcJpIHXw-4">
          <mxGeometry relative="1" as="geometry" />
        </mxCell>
        <mxCell id="VF5sbW5bGw1HgcJpIHXw-7" style="edgeStyle=orthogonalEdgeStyle;rounded=0;orthogonalLoop=1;jettySize=auto;html=1;exitX=0.5;exitY=1;exitDx=0;exitDy=0;entryX=0.5;entryY=0;entryDx=0;entryDy=0;" edge="1" parent="1" source="VF5sbW5bGw1HgcJpIHXw-2" target="VF5sbW5bGw1HgcJpIHXw-6">
          <mxGeometry relative="1" as="geometry" />
        </mxCell>
        <mxCell id="VF5sbW5bGw1HgcJpIHXw-2" value="If method has a NoToken annotation? " style="rhombus;whiteSpace=wrap;html=1;" vertex="1" parent="1">
          <mxGeometry x="135" y="240" width="130" height="80" as="geometry" />
        </mxCell>
        <mxCell id="VF5sbW5bGw1HgcJpIHXw-4" value="Process rest steps." style="rounded=1;whiteSpace=wrap;html=1;" vertex="1" parent="1">
          <mxGeometry x="360" y="250" width="120" height="60" as="geometry" />
        </mxCell>
        <mxCell id="VF5sbW5bGw1HgcJpIHXw-9" value="" style="edgeStyle=orthogonalEdgeStyle;rounded=0;orthogonalLoop=1;jettySize=auto;html=1;" edge="1" parent="1" source="VF5sbW5bGw1HgcJpIHXw-6" target="VF5sbW5bGw1HgcJpIHXw-8">
          <mxGeometry relative="1" as="geometry" />
        </mxCell>
        <mxCell id="VF5sbW5bGw1HgcJpIHXw-6" value="" style="rounded=1;whiteSpace=wrap;html=1;" vertex="1" parent="1">
          <mxGeometry x="140" y="390" width="120" height="60" as="geometry" />
        </mxCell>
        <mxCell id="VF5sbW5bGw1HgcJpIHXw-10" style="edgeStyle=orthogonalEdgeStyle;rounded=0;orthogonalLoop=1;jettySize=auto;html=1;exitX=1;exitY=0.5;exitDx=0;exitDy=0;entryX=0;entryY=0.5;entryDx=0;entryDy=0;" edge="1" parent="1" source="VF5sbW5bGw1HgcJpIHXw-8" target="VF5sbW5bGw1HgcJpIHXw-11">
          <mxGeometry relative="1" as="geometry">
            <mxPoint x="360" y="533" as="targetPoint" />
          </mxGeometry>
        </mxCell>
        <mxCell id="VF5sbW5bGw1HgcJpIHXw-12" style="edgeStyle=orthogonalEdgeStyle;rounded=0;orthogonalLoop=1;jettySize=auto;html=1;exitX=0.5;exitY=1;exitDx=0;exitDy=0;entryX=0.5;entryY=0;entryDx=0;entryDy=0;" edge="1" parent="1" source="VF5sbW5bGw1HgcJpIHXw-8" target="VF5sbW5bGw1HgcJpIHXw-13">
          <mxGeometry relative="1" as="geometry">
            <mxPoint x="200" y="630" as="targetPoint" />
          </mxGeometry>
        </mxCell>
        <mxCell id="VF5sbW5bGw1HgcJpIHXw-8" value="If there is a parameter of token in header?" style="rhombus;whiteSpace=wrap;html=1;" vertex="1" parent="1">
          <mxGeometry x="130" y="500" width="140" height="65" as="geometry" />
        </mxCell>
        <mxCell id="VF5sbW5bGw1HgcJpIHXw-11" value="Return http response with status code 401" style="rounded=1;whiteSpace=wrap;html=1;" vertex="1" parent="1">
          <mxGeometry x="360" y="502.5" width="120" height="60" as="geometry" />
        </mxCell>
        <mxCell id="VF5sbW5bGw1HgcJpIHXw-16" style="edgeStyle=orthogonalEdgeStyle;rounded=0;orthogonalLoop=1;jettySize=auto;html=1;exitX=0.5;exitY=1;exitDx=0;exitDy=0;" edge="1" parent="1" source="VF5sbW5bGw1HgcJpIHXw-13" target="VF5sbW5bGw1HgcJpIHXw-15">
          <mxGeometry relative="1" as="geometry" />
        </mxCell>
        <mxCell id="VF5sbW5bGw1HgcJpIHXw-13" value="Invoke a http request to SSO with token." style="rounded=1;whiteSpace=wrap;html=1;" vertex="1" parent="1">
          <mxGeometry x="140" y="590" width="120" height="60" as="geometry" />
        </mxCell>
        <mxCell id="VF5sbW5bGw1HgcJpIHXw-14" value="Single Sign On system(access-center)" style="rounded=1;whiteSpace=wrap;html=1;labelPosition=center;verticalLabelPosition=top;align=center;verticalAlign=bottom;" vertex="1" parent="1">
          <mxGeometry x="20" y="740" width="690" height="180" as="geometry" />
        </mxCell>
        <mxCell id="VF5sbW5bGw1HgcJpIHXw-18" style="edgeStyle=orthogonalEdgeStyle;rounded=0;orthogonalLoop=1;jettySize=auto;html=1;exitX=1;exitY=0.5;exitDx=0;exitDy=0;entryX=0;entryY=0.5;entryDx=0;entryDy=0;" edge="1" parent="1" source="VF5sbW5bGw1HgcJpIHXw-15" target="VF5sbW5bGw1HgcJpIHXw-17">
          <mxGeometry relative="1" as="geometry" />
        </mxCell>
        <mxCell id="VF5sbW5bGw1HgcJpIHXw-15" value="Check the token in cache server" style="rounded=1;whiteSpace=wrap;html=1;" vertex="1" parent="1">
          <mxGeometry x="140" y="770" width="120" height="60" as="geometry" />
        </mxCell>
        <mxCell id="VF5sbW5bGw1HgcJpIHXw-17" value="Exist in cache server?" style="rhombus;whiteSpace=wrap;html=1;" vertex="1" parent="1">
          <mxGeometry x="311" y="760" width="109" height="80" as="geometry" />
        </mxCell>
      </root>
    </mxGraphModel>
  </diagram>
</mxfile>
